<mxfile host="app.diagrams.net" agent="Mozilla/5.0 (Windows NT 10.0; Win64; x64) AppleWebKit/537.36 (KHTML, like Gecko) Chrome/128.0.0.0 Safari/537.36" version="24.7.16">
  <diagram name="Pagina-1" id="an9IDKrDngbuDWgI6LzD">
    <mxGraphModel dx="819" dy="426" grid="1" gridSize="10" guides="1" tooltips="1" connect="1" arrows="1" fold="1" page="1" pageScale="1" pageWidth="827" pageHeight="1169" math="0" shadow="0">
      <root>
        <mxCell id="0" />
        <mxCell id="1" parent="0" />
        <mxCell id="YffOVB0470sbpmYkByOQ-3" style="edgeStyle=orthogonalEdgeStyle;rounded=0;orthogonalLoop=1;jettySize=auto;html=1;exitX=1;exitY=0.25;exitDx=0;exitDy=0;endArrow=oval;endFill=1;" edge="1" parent="1" source="YffOVB0470sbpmYkByOQ-1">
          <mxGeometry relative="1" as="geometry">
            <mxPoint x="300" y="122.57142857142856" as="targetPoint" />
          </mxGeometry>
        </mxCell>
        <mxCell id="YffOVB0470sbpmYkByOQ-5" style="edgeStyle=orthogonalEdgeStyle;rounded=0;orthogonalLoop=1;jettySize=auto;html=1;exitX=1;exitY=0.5;exitDx=0;exitDy=0;endArrow=oval;endFill=0;" edge="1" parent="1" source="YffOVB0470sbpmYkByOQ-1">
          <mxGeometry relative="1" as="geometry">
            <mxPoint x="300" y="144.8571428571429" as="targetPoint" />
          </mxGeometry>
        </mxCell>
        <mxCell id="YffOVB0470sbpmYkByOQ-9" style="edgeStyle=orthogonalEdgeStyle;rounded=0;orthogonalLoop=1;jettySize=auto;html=1;exitX=1;exitY=0.75;exitDx=0;exitDy=0;endArrow=oval;endFill=0;" edge="1" parent="1" source="YffOVB0470sbpmYkByOQ-1">
          <mxGeometry relative="1" as="geometry">
            <mxPoint x="300" y="167.71428571428567" as="targetPoint" />
          </mxGeometry>
        </mxCell>
        <mxCell id="YffOVB0470sbpmYkByOQ-1" value="Lista" style="rounded=0;whiteSpace=wrap;html=1;" vertex="1" parent="1">
          <mxGeometry x="120" y="100" width="140" height="90" as="geometry" />
        </mxCell>
        <mxCell id="YffOVB0470sbpmYkByOQ-4" value="id" style="text;html=1;align=center;verticalAlign=middle;resizable=0;points=[];autosize=1;strokeColor=none;fillColor=none;" vertex="1" parent="1">
          <mxGeometry x="300" y="108" width="30" height="30" as="geometry" />
        </mxCell>
        <mxCell id="YffOVB0470sbpmYkByOQ-6" value="nome" style="text;html=1;align=center;verticalAlign=middle;resizable=0;points=[];autosize=1;strokeColor=none;fillColor=none;" vertex="1" parent="1">
          <mxGeometry x="298" y="130" width="50" height="30" as="geometry" />
        </mxCell>
        <mxCell id="YffOVB0470sbpmYkByOQ-7" value="giochi" style="text;html=1;align=center;verticalAlign=middle;resizable=0;points=[];autosize=1;strokeColor=none;fillColor=none;" vertex="1" parent="1">
          <mxGeometry x="300" y="150" width="50" height="30" as="geometry" />
        </mxCell>
        <mxCell id="YffOVB0470sbpmYkByOQ-11" style="edgeStyle=orthogonalEdgeStyle;rounded=0;orthogonalLoop=1;jettySize=auto;html=1;exitX=1;exitY=0.25;exitDx=0;exitDy=0;endArrow=oval;endFill=0;" edge="1" parent="1" source="YffOVB0470sbpmYkByOQ-10">
          <mxGeometry relative="1" as="geometry">
            <mxPoint x="700" y="135.1428571428571" as="targetPoint" />
          </mxGeometry>
        </mxCell>
        <mxCell id="YffOVB0470sbpmYkByOQ-14" style="edgeStyle=orthogonalEdgeStyle;rounded=0;orthogonalLoop=1;jettySize=auto;html=1;exitX=1;exitY=0.75;exitDx=0;exitDy=0;endArrow=oval;endFill=0;" edge="1" parent="1" source="YffOVB0470sbpmYkByOQ-10">
          <mxGeometry relative="1" as="geometry">
            <mxPoint x="700" y="164.8571428571429" as="targetPoint" />
          </mxGeometry>
        </mxCell>
        <mxCell id="YffOVB0470sbpmYkByOQ-22" style="edgeStyle=orthogonalEdgeStyle;rounded=0;orthogonalLoop=1;jettySize=auto;html=1;exitX=0;exitY=0.25;exitDx=0;exitDy=0;endArrow=oval;endFill=0;" edge="1" parent="1" source="YffOVB0470sbpmYkByOQ-10">
          <mxGeometry relative="1" as="geometry">
            <mxPoint x="500" y="135.1428571428571" as="targetPoint" />
          </mxGeometry>
        </mxCell>
        <mxCell id="YffOVB0470sbpmYkByOQ-10" value="utente" style="rounded=0;whiteSpace=wrap;html=1;" vertex="1" parent="1">
          <mxGeometry x="540" y="120" width="120" height="60" as="geometry" />
        </mxCell>
        <mxCell id="YffOVB0470sbpmYkByOQ-12" value="username" style="text;html=1;align=center;verticalAlign=middle;resizable=0;points=[];autosize=1;strokeColor=none;fillColor=none;" vertex="1" parent="1">
          <mxGeometry x="696" y="119" width="80" height="30" as="geometry" />
        </mxCell>
        <mxCell id="YffOVB0470sbpmYkByOQ-15" value="password" style="text;html=1;align=center;verticalAlign=middle;resizable=0;points=[];autosize=1;strokeColor=none;fillColor=none;" vertex="1" parent="1">
          <mxGeometry x="701" y="149" width="70" height="30" as="geometry" />
        </mxCell>
        <mxCell id="YffOVB0470sbpmYkByOQ-18" value="" style="edgeStyle=none;orthogonalLoop=1;jettySize=auto;html=1;rounded=0;endArrow=none;endFill=0;" edge="1" parent="1" source="YffOVB0470sbpmYkByOQ-17">
          <mxGeometry width="100" relative="1" as="geometry">
            <mxPoint x="680" y="190" as="sourcePoint" />
            <mxPoint x="680" y="120" as="targetPoint" />
            <Array as="points" />
          </mxGeometry>
        </mxCell>
        <mxCell id="YffOVB0470sbpmYkByOQ-20" value="" style="edgeStyle=none;orthogonalLoop=1;jettySize=auto;html=1;rounded=0;endArrow=none;endFill=0;" edge="1" parent="1" target="YffOVB0470sbpmYkByOQ-17">
          <mxGeometry width="100" relative="1" as="geometry">
            <mxPoint x="680" y="190" as="sourcePoint" />
            <mxPoint x="680" y="120" as="targetPoint" />
            <Array as="points" />
          </mxGeometry>
        </mxCell>
        <mxCell id="YffOVB0470sbpmYkByOQ-17" value="" style="shape=waypoint;sketch=0;size=6;pointerEvents=1;points=[];fillColor=none;resizable=0;rotatable=0;perimeter=centerPerimeter;snapToPoint=1;" vertex="1" parent="1">
          <mxGeometry x="670" y="110" width="20" height="20" as="geometry" />
        </mxCell>
        <mxCell id="YffOVB0470sbpmYkByOQ-23" value="commenti" style="text;html=1;align=center;verticalAlign=middle;resizable=0;points=[];autosize=1;strokeColor=none;fillColor=none;" vertex="1" parent="1">
          <mxGeometry x="427" y="120" width="80" height="30" as="geometry" />
        </mxCell>
      </root>
    </mxGraphModel>
  </diagram>
</mxfile>
